<mxfile host="app.diagrams.net" modified="2024-05-11T17:51:49.351Z" agent="Mozilla/5.0 (Windows NT 10.0; Win64; x64) AppleWebKit/537.36 (KHTML, like Gecko) Chrome/123.0.0.0 Safari/537.36 OPR/109.0.0.0" etag="iS37S0f3wHT0aLjMZvjk" version="24.4.0" type="github">
  <diagram id="C5RBs43oDa-KdzZeNtuy" name="Page-1">
    <mxGraphModel dx="3134" dy="3266" grid="1" gridSize="10" guides="1" tooltips="1" connect="1" arrows="1" fold="1" page="1" pageScale="1" pageWidth="827" pageHeight="1169" math="0" shadow="0">
      <root>
        <mxCell id="WIyWlLk6GJQsqaUBKTNV-0" />
        <mxCell id="WIyWlLk6GJQsqaUBKTNV-1" parent="WIyWlLk6GJQsqaUBKTNV-0" />
        <mxCell id="zkfFHV4jXpPFQw0GAbJ--26" value="" style="endArrow=open;shadow=0;strokeWidth=1;rounded=0;curved=0;endFill=1;edgeStyle=elbowEdgeStyle;elbow=vertical;" parent="WIyWlLk6GJQsqaUBKTNV-1" edge="1">
          <mxGeometry x="0.5" y="41" relative="1" as="geometry">
            <mxPoint x="840.0000000000001" y="400.00333333333333" as="sourcePoint" />
            <mxPoint x="968" y="400.00333333333333" as="targetPoint" />
            <mxPoint x="-40" y="32" as="offset" />
          </mxGeometry>
        </mxCell>
        <mxCell id="zkfFHV4jXpPFQw0GAbJ--27" value="0..1" style="resizable=0;align=left;verticalAlign=bottom;labelBackgroundColor=none;fontSize=12;" parent="zkfFHV4jXpPFQw0GAbJ--26" connectable="0" vertex="1">
          <mxGeometry x="-1" relative="1" as="geometry">
            <mxPoint y="4" as="offset" />
          </mxGeometry>
        </mxCell>
        <mxCell id="zkfFHV4jXpPFQw0GAbJ--28" value="1" style="resizable=0;align=right;verticalAlign=bottom;labelBackgroundColor=none;fontSize=12;" parent="zkfFHV4jXpPFQw0GAbJ--26" connectable="0" vertex="1">
          <mxGeometry x="1" relative="1" as="geometry">
            <mxPoint x="-7" y="4" as="offset" />
          </mxGeometry>
        </mxCell>
        <mxCell id="zkfFHV4jXpPFQw0GAbJ--29" value="lives at" style="text;html=1;resizable=0;points=[];;align=center;verticalAlign=middle;labelBackgroundColor=none;rounded=0;shadow=0;strokeWidth=1;fontSize=12;" parent="zkfFHV4jXpPFQw0GAbJ--26" vertex="1" connectable="0">
          <mxGeometry x="0.5" y="49" relative="1" as="geometry">
            <mxPoint x="-38" y="40" as="offset" />
          </mxGeometry>
        </mxCell>
        <mxCell id="yqbtppaPaY01xmd0uT7A-17" style="edgeStyle=orthogonalEdgeStyle;rounded=0;orthogonalLoop=1;jettySize=auto;html=1;entryX=1;entryY=0.5;entryDx=0;entryDy=0;fontSize=12;startSize=8;endSize=15;exitX=0.5;exitY=0;exitDx=0;exitDy=0;endArrow=diamond;endFill=1;" edge="1" parent="WIyWlLk6GJQsqaUBKTNV-1" source="yqbtppaPaY01xmd0uT7A-11" target="yqbtppaPaY01xmd0uT7A-5">
          <mxGeometry relative="1" as="geometry" />
        </mxCell>
        <mxCell id="yqbtppaPaY01xmd0uT7A-0" value="Login" style="swimlane;fontStyle=0;align=center;verticalAlign=top;childLayout=stackLayout;horizontal=1;startSize=26;horizontalStack=0;resizeParent=1;resizeLast=0;collapsible=1;marginBottom=0;rounded=0;shadow=0;strokeWidth=1;" vertex="1" parent="WIyWlLk6GJQsqaUBKTNV-1">
          <mxGeometry x="267" y="420" width="250" height="100" as="geometry">
            <mxRectangle x="130" y="380" width="160" height="26" as="alternateBounds" />
          </mxGeometry>
        </mxCell>
        <mxCell id="yqbtppaPaY01xmd0uT7A-1" value="- seguranca : Seguranca&#xa;- serviceUser : ServiceUser" style="text;align=left;verticalAlign=top;spacingLeft=4;spacingRight=4;overflow=hidden;rotatable=0;points=[[0,0.5],[1,0.5]];portConstraint=eastwest;strokeColor=none;" vertex="1" parent="yqbtppaPaY01xmd0uT7A-0">
          <mxGeometry y="26" width="250" height="34" as="geometry" />
        </mxCell>
        <mxCell id="yqbtppaPaY01xmd0uT7A-3" value="" style="line;html=1;strokeWidth=1;align=left;verticalAlign=middle;spacingTop=-1;spacingLeft=3;spacingRight=3;rotatable=0;labelPosition=right;points=[];portConstraint=eastwest;" vertex="1" parent="yqbtppaPaY01xmd0uT7A-0">
          <mxGeometry y="60" width="250" height="8" as="geometry" />
        </mxCell>
        <mxCell id="yqbtppaPaY01xmd0uT7A-5" value="+ login(String email, String senha) : Usuario" style="text;align=left;verticalAlign=top;spacingLeft=4;spacingRight=4;overflow=hidden;rotatable=0;points=[[0,0.5],[1,0.5]];portConstraint=eastwest;" vertex="1" parent="yqbtppaPaY01xmd0uT7A-0">
          <mxGeometry y="68" width="250" height="26" as="geometry" />
        </mxCell>
        <mxCell id="yqbtppaPaY01xmd0uT7A-7" value="Seguranca" style="swimlane;fontStyle=0;align=center;verticalAlign=top;childLayout=stackLayout;horizontal=1;startSize=26;horizontalStack=0;resizeParent=1;resizeLast=0;collapsible=1;marginBottom=0;rounded=0;shadow=0;strokeWidth=1;" vertex="1" parent="WIyWlLk6GJQsqaUBKTNV-1">
          <mxGeometry x="-3" y="570" width="320" height="84" as="geometry">
            <mxRectangle x="130" y="380" width="160" height="26" as="alternateBounds" />
          </mxGeometry>
        </mxCell>
        <mxCell id="yqbtppaPaY01xmd0uT7A-8" value="- serviceUser : ServiceUser" style="text;align=left;verticalAlign=top;spacingLeft=4;spacingRight=4;overflow=hidden;rotatable=0;points=[[0,0.5],[1,0.5]];portConstraint=eastwest;" vertex="1" parent="yqbtppaPaY01xmd0uT7A-7">
          <mxGeometry y="26" width="320" height="24" as="geometry" />
        </mxCell>
        <mxCell id="yqbtppaPaY01xmd0uT7A-9" value="" style="line;html=1;strokeWidth=1;align=left;verticalAlign=middle;spacingTop=-1;spacingLeft=3;spacingRight=3;rotatable=0;labelPosition=right;points=[];portConstraint=eastwest;" vertex="1" parent="yqbtppaPaY01xmd0uT7A-7">
          <mxGeometry y="50" width="320" height="8" as="geometry" />
        </mxCell>
        <mxCell id="yqbtppaPaY01xmd0uT7A-10" value="+ autenticarUsuario(String email, String senha) : boolean" style="text;align=left;verticalAlign=top;spacingLeft=4;spacingRight=4;overflow=hidden;rotatable=0;points=[[0,0.5],[1,0.5]];portConstraint=eastwest;" vertex="1" parent="yqbtppaPaY01xmd0uT7A-7">
          <mxGeometry y="58" width="320" height="26" as="geometry" />
        </mxCell>
        <mxCell id="yqbtppaPaY01xmd0uT7A-11" value="ServiceUser" style="swimlane;fontStyle=0;align=center;verticalAlign=top;childLayout=stackLayout;horizontal=1;startSize=26;horizontalStack=0;resizeParent=1;resizeLast=0;collapsible=1;marginBottom=0;rounded=0;shadow=0;strokeWidth=1;" vertex="1" parent="WIyWlLk6GJQsqaUBKTNV-1">
          <mxGeometry x="437" y="570" width="370" height="84" as="geometry">
            <mxRectangle x="130" y="380" width="160" height="26" as="alternateBounds" />
          </mxGeometry>
        </mxCell>
        <mxCell id="yqbtppaPaY01xmd0uT7A-12" value="~ usuarioDao : UsuarioDAO" style="text;align=left;verticalAlign=top;spacingLeft=4;spacingRight=4;overflow=hidden;rotatable=0;points=[[0,0.5],[1,0.5]];portConstraint=eastwest;" vertex="1" parent="yqbtppaPaY01xmd0uT7A-11">
          <mxGeometry y="26" width="370" height="24" as="geometry" />
        </mxCell>
        <mxCell id="yqbtppaPaY01xmd0uT7A-13" value="" style="line;html=1;strokeWidth=1;align=left;verticalAlign=middle;spacingTop=-1;spacingLeft=3;spacingRight=3;rotatable=0;labelPosition=right;points=[];portConstraint=eastwest;" vertex="1" parent="yqbtppaPaY01xmd0uT7A-11">
          <mxGeometry y="50" width="370" height="8" as="geometry" />
        </mxCell>
        <mxCell id="yqbtppaPaY01xmd0uT7A-14" value="+ autenticarUsuario(String email, String senha) : Optional&lt;Usuario&gt;" style="text;align=left;verticalAlign=top;spacingLeft=4;spacingRight=4;overflow=hidden;rotatable=0;points=[[0,0.5],[1,0.5]];portConstraint=eastwest;" vertex="1" parent="yqbtppaPaY01xmd0uT7A-11">
          <mxGeometry y="58" width="370" height="26" as="geometry" />
        </mxCell>
        <mxCell id="yqbtppaPaY01xmd0uT7A-18" style="edgeStyle=orthogonalEdgeStyle;rounded=0;orthogonalLoop=1;jettySize=auto;html=1;fontSize=12;startSize=8;endSize=15;endArrow=diamond;endFill=1;exitX=0.5;exitY=0;exitDx=0;exitDy=0;" edge="1" parent="WIyWlLk6GJQsqaUBKTNV-1" source="yqbtppaPaY01xmd0uT7A-7" target="yqbtppaPaY01xmd0uT7A-5">
          <mxGeometry relative="1" as="geometry" />
        </mxCell>
        <mxCell id="yqbtppaPaY01xmd0uT7A-19" style="edgeStyle=orthogonalEdgeStyle;rounded=0;orthogonalLoop=1;jettySize=auto;html=1;fontSize=12;startSize=8;endSize=15;endArrow=diamond;endFill=1;" edge="1" parent="WIyWlLk6GJQsqaUBKTNV-1" source="yqbtppaPaY01xmd0uT7A-12" target="yqbtppaPaY01xmd0uT7A-8">
          <mxGeometry relative="1" as="geometry" />
        </mxCell>
        <mxCell id="yqbtppaPaY01xmd0uT7A-24" style="edgeStyle=orthogonalEdgeStyle;rounded=0;orthogonalLoop=1;jettySize=auto;html=1;fontSize=12;startSize=8;endSize=15;entryX=0.517;entryY=0.968;entryDx=0;entryDy=0;entryPerimeter=0;endArrow=diamond;endFill=1;" edge="1" parent="WIyWlLk6GJQsqaUBKTNV-1" source="yqbtppaPaY01xmd0uT7A-20" target="yqbtppaPaY01xmd0uT7A-14">
          <mxGeometry relative="1" as="geometry" />
        </mxCell>
        <mxCell id="yqbtppaPaY01xmd0uT7A-20" value="UsuarioDAO" style="swimlane;fontStyle=0;align=center;verticalAlign=top;childLayout=stackLayout;horizontal=1;startSize=26;horizontalStack=0;resizeParent=1;resizeLast=0;collapsible=1;marginBottom=0;rounded=0;shadow=0;strokeWidth=1;" vertex="1" parent="WIyWlLk6GJQsqaUBKTNV-1">
          <mxGeometry x="427" y="740" width="400" height="92" as="geometry">
            <mxRectangle x="130" y="380" width="160" height="26" as="alternateBounds" />
          </mxGeometry>
        </mxCell>
        <mxCell id="yqbtppaPaY01xmd0uT7A-23" value="&#xa;" style="text;align=left;verticalAlign=top;spacingLeft=4;spacingRight=4;overflow=hidden;rotatable=0;points=[[0,0.5],[1,0.5]];portConstraint=eastwest;" vertex="1" parent="yqbtppaPaY01xmd0uT7A-20">
          <mxGeometry y="26" width="400" height="14" as="geometry" />
        </mxCell>
        <mxCell id="yqbtppaPaY01xmd0uT7A-22" value="" style="line;html=1;strokeWidth=1;align=left;verticalAlign=middle;spacingTop=-1;spacingLeft=3;spacingRight=3;rotatable=0;labelPosition=right;points=[];portConstraint=eastwest;" vertex="1" parent="yqbtppaPaY01xmd0uT7A-20">
          <mxGeometry y="40" width="400" height="8" as="geometry" />
        </mxCell>
        <mxCell id="yqbtppaPaY01xmd0uT7A-33" value="+ findByEmailAndSenha(String email, String senha) : Optional&lt;Usuario&gt;&#xa;- createUser(ResultSet resultSet) : Usuario" style="text;align=left;verticalAlign=top;spacingLeft=4;spacingRight=4;overflow=hidden;rotatable=0;points=[[0,0.5],[1,0.5]];portConstraint=eastwest;" vertex="1" parent="yqbtppaPaY01xmd0uT7A-20">
          <mxGeometry y="48" width="400" height="44" as="geometry" />
        </mxCell>
        <mxCell id="yqbtppaPaY01xmd0uT7A-25" value="Maquina" style="swimlane;fontStyle=0;align=center;verticalAlign=top;childLayout=stackLayout;horizontal=1;startSize=26;horizontalStack=0;resizeParent=1;resizeLast=0;collapsible=1;marginBottom=0;rounded=0;shadow=0;strokeWidth=1;" vertex="1" parent="WIyWlLk6GJQsqaUBKTNV-1">
          <mxGeometry x="-125" y="148" width="250" height="210" as="geometry">
            <mxRectangle x="130" y="380" width="160" height="26" as="alternateBounds" />
          </mxGeometry>
        </mxCell>
        <mxCell id="yqbtppaPaY01xmd0uT7A-26" value="- idMaquina : Integer&#xa;- numeroSerial : String&#xa;- modelo : String&#xa;- marca : String&#xa;- hostname : String&#xa;- username : String&#xa;- ipv4 : List&lt;String&gt;&#xa;- usuario : Usuario&#xa;- componentes : List&lt;Componentes&gt;" style="text;align=left;verticalAlign=top;spacingLeft=4;spacingRight=4;overflow=hidden;rotatable=0;points=[[0,0.5],[1,0.5]];portConstraint=eastwest;strokeColor=none;" vertex="1" parent="yqbtppaPaY01xmd0uT7A-25">
          <mxGeometry y="26" width="250" height="134" as="geometry" />
        </mxCell>
        <mxCell id="yqbtppaPaY01xmd0uT7A-27" value="" style="line;html=1;strokeWidth=1;align=left;verticalAlign=middle;spacingTop=-1;spacingLeft=3;spacingRight=3;rotatable=0;labelPosition=right;points=[];portConstraint=eastwest;" vertex="1" parent="yqbtppaPaY01xmd0uT7A-25">
          <mxGeometry y="160" width="250" height="8" as="geometry" />
        </mxCell>
        <mxCell id="yqbtppaPaY01xmd0uT7A-28" value="+ exibirTabelaComponentes() : String&#xa;+ layoutPdfComponentes() : String" style="text;align=left;verticalAlign=top;spacingLeft=4;spacingRight=4;overflow=hidden;rotatable=0;points=[[0,0.5],[1,0.5]];portConstraint=eastwest;" vertex="1" parent="yqbtppaPaY01xmd0uT7A-25">
          <mxGeometry y="168" width="250" height="42" as="geometry" />
        </mxCell>
        <mxCell id="yqbtppaPaY01xmd0uT7A-29" value="Usuario" style="swimlane;fontStyle=0;align=center;verticalAlign=top;childLayout=stackLayout;horizontal=1;startSize=26;horizontalStack=0;resizeParent=1;resizeLast=0;collapsible=1;marginBottom=0;rounded=0;shadow=0;strokeWidth=1;" vertex="1" parent="WIyWlLk6GJQsqaUBKTNV-1">
          <mxGeometry x="210" y="120" width="250" height="165" as="geometry">
            <mxRectangle x="130" y="380" width="160" height="26" as="alternateBounds" />
          </mxGeometry>
        </mxCell>
        <mxCell id="yqbtppaPaY01xmd0uT7A-30" value="- idUsuario : int&#xa;- nome : String&#xa;- cpfCnpj : String&#xa;- fkEmpresa : Integer&#xa;- cargo : String&#xa;- email : String&#xa;- senha : String&#xa;- fkPlano : Integer" style="text;align=left;verticalAlign=top;spacingLeft=4;spacingRight=4;overflow=hidden;rotatable=0;points=[[0,0.5],[1,0.5]];portConstraint=eastwest;strokeColor=none;" vertex="1" parent="yqbtppaPaY01xmd0uT7A-29">
          <mxGeometry y="26" width="250" height="124" as="geometry" />
        </mxCell>
        <mxCell id="yqbtppaPaY01xmd0uT7A-31" value="" style="line;html=1;strokeWidth=1;align=left;verticalAlign=middle;spacingTop=-1;spacingLeft=3;spacingRight=3;rotatable=0;labelPosition=right;points=[];portConstraint=eastwest;" vertex="1" parent="yqbtppaPaY01xmd0uT7A-29">
          <mxGeometry y="150" width="250" height="8" as="geometry" />
        </mxCell>
        <mxCell id="yqbtppaPaY01xmd0uT7A-34" value="Componentes" style="swimlane;fontStyle=0;align=center;verticalAlign=top;childLayout=stackLayout;horizontal=1;startSize=26;horizontalStack=0;resizeParent=1;resizeLast=0;collapsible=1;marginBottom=0;rounded=0;shadow=0;strokeWidth=1;" vertex="1" parent="WIyWlLk6GJQsqaUBKTNV-1">
          <mxGeometry x="-125" y="-295" width="250" height="215" as="geometry">
            <mxRectangle x="130" y="380" width="160" height="26" as="alternateBounds" />
          </mxGeometry>
        </mxCell>
        <mxCell id="yqbtppaPaY01xmd0uT7A-35" value="# idComponentes : Integer&#xa;# componentes : String&#xa;# modelo : String&#xa;# fabricante : String&#xa;# fkMaquina : Integer&#xa;# unidadeMedida : String&#xa;# dadoCaptura : Double&#xa;# dataCaptura : LocalDateTime" style="text;align=left;verticalAlign=top;spacingLeft=4;spacingRight=4;overflow=hidden;rotatable=0;points=[[0,0.5],[1,0.5]];portConstraint=eastwest;strokeColor=none;" vertex="1" parent="yqbtppaPaY01xmd0uT7A-34">
          <mxGeometry y="26" width="250" height="124" as="geometry" />
        </mxCell>
        <mxCell id="yqbtppaPaY01xmd0uT7A-36" value="" style="line;html=1;strokeWidth=1;align=left;verticalAlign=middle;spacingTop=-1;spacingLeft=3;spacingRight=3;rotatable=0;labelPosition=right;points=[];portConstraint=eastwest;" vertex="1" parent="yqbtppaPaY01xmd0uT7A-34">
          <mxGeometry y="150" width="250" height="8" as="geometry" />
        </mxCell>
        <mxCell id="yqbtppaPaY01xmd0uT7A-37" value="+ tabela() : List&lt;List&lt;String&gt;&gt;&#xa;+ tabelaConvert() : String&#xa;+ pdfLayout() : String&#xa;" style="text;align=left;verticalAlign=top;spacingLeft=4;spacingRight=4;overflow=hidden;rotatable=0;points=[[0,0.5],[1,0.5]];portConstraint=eastwest;strokeColor=none;" vertex="1" parent="yqbtppaPaY01xmd0uT7A-34">
          <mxGeometry y="158" width="250" height="52" as="geometry" />
        </mxCell>
        <mxCell id="yqbtppaPaY01xmd0uT7A-38" style="edgeStyle=orthogonalEdgeStyle;rounded=0;orthogonalLoop=1;jettySize=auto;html=1;entryX=1.006;entryY=0.206;entryDx=0;entryDy=0;entryPerimeter=0;fontSize=12;startSize=8;endSize=15;endArrow=diamond;endFill=0;" edge="1" parent="WIyWlLk6GJQsqaUBKTNV-1" source="yqbtppaPaY01xmd0uT7A-29" target="yqbtppaPaY01xmd0uT7A-26">
          <mxGeometry relative="1" as="geometry" />
        </mxCell>
        <mxCell id="yqbtppaPaY01xmd0uT7A-39" style="edgeStyle=orthogonalEdgeStyle;rounded=0;orthogonalLoop=1;jettySize=auto;html=1;entryX=0.5;entryY=0;entryDx=0;entryDy=0;fontSize=12;startSize=8;endSize=15;exitX=0.5;exitY=1;exitDx=0;exitDy=0;endArrow=diamond;endFill=0;" edge="1" parent="WIyWlLk6GJQsqaUBKTNV-1" source="yqbtppaPaY01xmd0uT7A-34" target="yqbtppaPaY01xmd0uT7A-25">
          <mxGeometry relative="1" as="geometry" />
        </mxCell>
        <mxCell id="yqbtppaPaY01xmd0uT7A-43" value="ServicePC" style="swimlane;fontStyle=0;align=center;verticalAlign=top;childLayout=stackLayout;horizontal=1;startSize=26;horizontalStack=0;resizeParent=1;resizeLast=0;collapsible=1;marginBottom=0;rounded=0;shadow=0;strokeWidth=1;" vertex="1" parent="WIyWlLk6GJQsqaUBKTNV-1">
          <mxGeometry x="570" y="82.5" width="260" height="87" as="geometry">
            <mxRectangle x="130" y="380" width="160" height="26" as="alternateBounds" />
          </mxGeometry>
        </mxCell>
        <mxCell id="yqbtppaPaY01xmd0uT7A-44" value="~ maquinaDAO : MaquinaDAO" style="text;align=left;verticalAlign=top;spacingLeft=4;spacingRight=4;overflow=hidden;rotatable=0;points=[[0,0.5],[1,0.5]];portConstraint=eastwest;strokeColor=none;" vertex="1" parent="yqbtppaPaY01xmd0uT7A-43">
          <mxGeometry y="26" width="260" height="24" as="geometry" />
        </mxCell>
        <mxCell id="yqbtppaPaY01xmd0uT7A-45" value="" style="line;html=1;strokeWidth=1;align=left;verticalAlign=middle;spacingTop=-1;spacingLeft=3;spacingRight=3;rotatable=0;labelPosition=right;points=[];portConstraint=eastwest;" vertex="1" parent="yqbtppaPaY01xmd0uT7A-43">
          <mxGeometry y="50" width="260" height="8" as="geometry" />
        </mxCell>
        <mxCell id="yqbtppaPaY01xmd0uT7A-46" value="+ verificarMaquina(Usuario usuario) : Maquina" style="text;align=left;verticalAlign=top;spacingLeft=4;spacingRight=4;overflow=hidden;rotatable=0;points=[[0,0.5],[1,0.5]];portConstraint=eastwest;strokeColor=none;" vertex="1" parent="yqbtppaPaY01xmd0uT7A-43">
          <mxGeometry y="58" width="260" height="22" as="geometry" />
        </mxCell>
        <mxCell id="yqbtppaPaY01xmd0uT7A-51" style="edgeStyle=orthogonalEdgeStyle;rounded=0;orthogonalLoop=1;jettySize=auto;html=1;fontSize=12;startSize=8;endSize=15;endArrow=diamond;endFill=1;entryX=0.5;entryY=1;entryDx=0;entryDy=0;exitX=0.5;exitY=0;exitDx=0;exitDy=0;" edge="1" parent="WIyWlLk6GJQsqaUBKTNV-1" source="yqbtppaPaY01xmd0uT7A-47" target="yqbtppaPaY01xmd0uT7A-43">
          <mxGeometry relative="1" as="geometry">
            <mxPoint x="880" y="121.5" as="targetPoint" />
          </mxGeometry>
        </mxCell>
        <mxCell id="yqbtppaPaY01xmd0uT7A-47" value="MaquinaDAO" style="swimlane;fontStyle=0;align=center;verticalAlign=top;childLayout=stackLayout;horizontal=1;startSize=26;horizontalStack=0;resizeParent=1;resizeLast=0;collapsible=1;marginBottom=0;rounded=0;shadow=0;strokeWidth=1;" vertex="1" parent="WIyWlLk6GJQsqaUBKTNV-1">
          <mxGeometry x="530" y="228" width="340" height="130" as="geometry">
            <mxRectangle x="130" y="380" width="160" height="26" as="alternateBounds" />
          </mxGeometry>
        </mxCell>
        <mxCell id="yqbtppaPaY01xmd0uT7A-48" value="&#xa;" style="text;align=left;verticalAlign=top;spacingLeft=4;spacingRight=4;overflow=hidden;rotatable=0;points=[[0,0.5],[1,0.5]];portConstraint=eastwest;strokeColor=none;" vertex="1" parent="yqbtppaPaY01xmd0uT7A-47">
          <mxGeometry y="26" width="340" height="14" as="geometry" />
        </mxCell>
        <mxCell id="yqbtppaPaY01xmd0uT7A-49" value="" style="line;html=1;strokeWidth=1;align=left;verticalAlign=middle;spacingTop=-1;spacingLeft=3;spacingRight=3;rotatable=0;labelPosition=right;points=[];portConstraint=eastwest;" vertex="1" parent="yqbtppaPaY01xmd0uT7A-47">
          <mxGeometry y="40" width="340" height="8" as="geometry" />
        </mxCell>
        <mxCell id="yqbtppaPaY01xmd0uT7A-50" value="+ monitorarMaquina(Usuario usuario) : Optional&lt;Maquina&gt;&#xa;+ especificarMaquina(Maquina maquina) : void&#xa;+ getIpv4() : String&#xa;- verifyMaquina(Maquina maquina) : void&#xa;- criaMaquina(ResultSet resultSet, Usuario usuario) : Maquina&#xa;" style="text;align=left;verticalAlign=top;spacingLeft=4;spacingRight=4;overflow=hidden;rotatable=0;points=[[0,0.5],[1,0.5]];portConstraint=eastwest;strokeColor=none;" vertex="1" parent="yqbtppaPaY01xmd0uT7A-47">
          <mxGeometry y="48" width="340" height="82" as="geometry" />
        </mxCell>
        <mxCell id="yqbtppaPaY01xmd0uT7A-56" value="ServiceComponente" style="swimlane;fontStyle=0;align=center;verticalAlign=top;childLayout=stackLayout;horizontal=1;startSize=26;horizontalStack=0;resizeParent=1;resizeLast=0;collapsible=1;marginBottom=0;rounded=0;shadow=0;strokeWidth=1;" vertex="1" parent="WIyWlLk6GJQsqaUBKTNV-1">
          <mxGeometry x="540" y="-620" width="320" height="150" as="geometry">
            <mxRectangle x="130" y="380" width="160" height="26" as="alternateBounds" />
          </mxGeometry>
        </mxCell>
        <mxCell id="yqbtppaPaY01xmd0uT7A-57" value="- componenteDAO : ComponenteDAO&#xa;- systemMonitor : SystemMonitor&#xa;- capturaDAO : CapturaDAO&#xa;- shellIntegration : ShellIntegration" style="text;align=left;verticalAlign=top;spacingLeft=4;spacingRight=4;overflow=hidden;rotatable=0;points=[[0,0.5],[1,0.5]];portConstraint=eastwest;strokeColor=none;" vertex="1" parent="yqbtppaPaY01xmd0uT7A-56">
          <mxGeometry y="26" width="320" height="64" as="geometry" />
        </mxCell>
        <mxCell id="yqbtppaPaY01xmd0uT7A-58" value="" style="line;html=1;strokeWidth=1;align=left;verticalAlign=middle;spacingTop=-1;spacingLeft=3;spacingRight=3;rotatable=0;labelPosition=right;points=[];portConstraint=eastwest;" vertex="1" parent="yqbtppaPaY01xmd0uT7A-56">
          <mxGeometry y="90" width="320" height="8" as="geometry" />
        </mxCell>
        <mxCell id="yqbtppaPaY01xmd0uT7A-59" value="+ obterComponentes(Maquina maquina) : void&#xa;+ iniciarCapturas(Maquina maquina) : void&#xa;+ atualizarComponente(Componente componente) : void" style="text;align=left;verticalAlign=top;spacingLeft=4;spacingRight=4;overflow=hidden;rotatable=0;points=[[0,0.5],[1,0.5]];portConstraint=eastwest;strokeColor=none;" vertex="1" parent="yqbtppaPaY01xmd0uT7A-56">
          <mxGeometry y="98" width="320" height="52" as="geometry" />
        </mxCell>
        <mxCell id="yqbtppaPaY01xmd0uT7A-64" style="edgeStyle=orthogonalEdgeStyle;rounded=0;orthogonalLoop=1;jettySize=auto;html=1;entryX=1;entryY=0.5;entryDx=0;entryDy=0;fontSize=12;startSize=8;endSize=15;endArrow=diamond;endFill=1;" edge="1" parent="WIyWlLk6GJQsqaUBKTNV-1" source="yqbtppaPaY01xmd0uT7A-60" target="yqbtppaPaY01xmd0uT7A-57">
          <mxGeometry relative="1" as="geometry" />
        </mxCell>
        <mxCell id="yqbtppaPaY01xmd0uT7A-60" value="ComponenteDAO" style="swimlane;fontStyle=0;align=center;verticalAlign=top;childLayout=stackLayout;horizontal=1;startSize=26;horizontalStack=0;resizeParent=1;resizeLast=0;collapsible=1;marginBottom=0;rounded=0;shadow=0;strokeWidth=1;" vertex="1" parent="WIyWlLk6GJQsqaUBKTNV-1">
          <mxGeometry x="930" y="-622" width="490" height="120" as="geometry">
            <mxRectangle x="130" y="380" width="160" height="26" as="alternateBounds" />
          </mxGeometry>
        </mxCell>
        <mxCell id="yqbtppaPaY01xmd0uT7A-61" value="&#xa;" style="text;align=left;verticalAlign=top;spacingLeft=4;spacingRight=4;overflow=hidden;rotatable=0;points=[[0,0.5],[1,0.5]];portConstraint=eastwest;strokeColor=none;" vertex="1" parent="yqbtppaPaY01xmd0uT7A-60">
          <mxGeometry y="26" width="490" height="14" as="geometry" />
        </mxCell>
        <mxCell id="yqbtppaPaY01xmd0uT7A-62" value="" style="line;html=1;strokeWidth=1;align=left;verticalAlign=middle;spacingTop=-1;spacingLeft=3;spacingRight=3;rotatable=0;labelPosition=right;points=[];portConstraint=eastwest;" vertex="1" parent="yqbtppaPaY01xmd0uT7A-60">
          <mxGeometry y="40" width="490" height="8" as="geometry" />
        </mxCell>
        <mxCell id="yqbtppaPaY01xmd0uT7A-63" value="+ getComponentes(Maquina maquina) : List&lt;Componente&gt;&#xa;- verificarTipoComponente(ResultSet resultSet) : Componente&#xa;+ salvarComponente(Maquina maquina, Componente componente) : void&#xa;+ componenteExistenteNoBanco(Componente componente, Maquina maquina) : boolean&#xa;" style="text;align=left;verticalAlign=top;spacingLeft=4;spacingRight=4;overflow=hidden;rotatable=0;points=[[0,0.5],[1,0.5]];portConstraint=eastwest;strokeColor=none;" vertex="1" parent="yqbtppaPaY01xmd0uT7A-60">
          <mxGeometry y="48" width="490" height="72" as="geometry" />
        </mxCell>
        <mxCell id="yqbtppaPaY01xmd0uT7A-69" style="edgeStyle=orthogonalEdgeStyle;rounded=0;orthogonalLoop=1;jettySize=auto;html=1;fontSize=12;startSize=8;endSize=15;endArrow=diamond;endFill=1;" edge="1" parent="WIyWlLk6GJQsqaUBKTNV-1" source="yqbtppaPaY01xmd0uT7A-65" target="yqbtppaPaY01xmd0uT7A-56">
          <mxGeometry relative="1" as="geometry" />
        </mxCell>
        <mxCell id="yqbtppaPaY01xmd0uT7A-65" value="CapturaDAO" style="swimlane;fontStyle=0;align=center;verticalAlign=top;childLayout=stackLayout;horizontal=1;startSize=26;horizontalStack=0;resizeParent=1;resizeLast=0;collapsible=1;marginBottom=0;rounded=0;shadow=0;strokeWidth=1;" vertex="1" parent="WIyWlLk6GJQsqaUBKTNV-1">
          <mxGeometry x="510" y="-400" width="380" height="90" as="geometry">
            <mxRectangle x="130" y="380" width="160" height="26" as="alternateBounds" />
          </mxGeometry>
        </mxCell>
        <mxCell id="yqbtppaPaY01xmd0uT7A-66" value="&#xa;" style="text;align=left;verticalAlign=top;spacingLeft=4;spacingRight=4;overflow=hidden;rotatable=0;points=[[0,0.5],[1,0.5]];portConstraint=eastwest;strokeColor=none;" vertex="1" parent="yqbtppaPaY01xmd0uT7A-65">
          <mxGeometry y="26" width="380" height="24" as="geometry" />
        </mxCell>
        <mxCell id="yqbtppaPaY01xmd0uT7A-67" value="" style="line;html=1;strokeWidth=1;align=left;verticalAlign=middle;spacingTop=-1;spacingLeft=3;spacingRight=3;rotatable=0;labelPosition=right;points=[];portConstraint=eastwest;" vertex="1" parent="yqbtppaPaY01xmd0uT7A-65">
          <mxGeometry y="50" width="380" height="8" as="geometry" />
        </mxCell>
        <mxCell id="yqbtppaPaY01xmd0uT7A-68" value="+ inserirCaptura(Maquina maquina, Componente componente) : void" style="text;align=left;verticalAlign=top;spacingLeft=4;spacingRight=4;overflow=hidden;rotatable=0;points=[[0,0.5],[1,0.5]];portConstraint=eastwest;strokeColor=none;" vertex="1" parent="yqbtppaPaY01xmd0uT7A-65">
          <mxGeometry y="58" width="380" height="32" as="geometry" />
        </mxCell>
        <mxCell id="yqbtppaPaY01xmd0uT7A-97" style="edgeStyle=orthogonalEdgeStyle;rounded=0;orthogonalLoop=1;jettySize=auto;html=1;entryX=0;entryY=0.5;entryDx=0;entryDy=0;fontSize=12;startSize=8;endSize=15;endArrow=diamond;endFill=0;" edge="1" parent="WIyWlLk6GJQsqaUBKTNV-1" source="yqbtppaPaY01xmd0uT7A-70" target="yqbtppaPaY01xmd0uT7A-57">
          <mxGeometry relative="1" as="geometry" />
        </mxCell>
        <mxCell id="yqbtppaPaY01xmd0uT7A-70" value="SystemMonitor" style="swimlane;fontStyle=0;align=center;verticalAlign=top;childLayout=stackLayout;horizontal=1;startSize=26;horizontalStack=0;resizeParent=1;resizeLast=0;collapsible=1;marginBottom=0;rounded=0;shadow=0;strokeWidth=1;" vertex="1" parent="WIyWlLk6GJQsqaUBKTNV-1">
          <mxGeometry x="190" y="-687" width="260" height="250" as="geometry">
            <mxRectangle x="130" y="380" width="160" height="26" as="alternateBounds" />
          </mxGeometry>
        </mxCell>
        <mxCell id="yqbtppaPaY01xmd0uT7A-71" value="- looca : Looca&#xa;- conversor : Conversor&#xa;- hardware : HardwareAbstractionLayer&#xa;- shellIntegration : ShellIntegration" style="text;align=left;verticalAlign=top;spacingLeft=4;spacingRight=4;overflow=hidden;rotatable=0;points=[[0,0.5],[1,0.5]];portConstraint=eastwest;strokeColor=none;" vertex="1" parent="yqbtppaPaY01xmd0uT7A-70">
          <mxGeometry y="26" width="260" height="64" as="geometry" />
        </mxCell>
        <mxCell id="yqbtppaPaY01xmd0uT7A-72" value="" style="line;html=1;strokeWidth=1;align=left;verticalAlign=middle;spacingTop=-1;spacingLeft=3;spacingRight=3;rotatable=0;labelPosition=right;points=[];portConstraint=eastwest;" vertex="1" parent="yqbtppaPaY01xmd0uT7A-70">
          <mxGeometry y="90" width="260" height="8" as="geometry" />
        </mxCell>
        <mxCell id="yqbtppaPaY01xmd0uT7A-73" value="+ monitorarCPU() : CPU&#xa;+ monitorarDisplay() : List&lt;APP&gt;&#xa;+ monitorarHDD() : List&lt;HDD&gt;&#xa;+ monitorarBateria() : List&lt;Bateria&gt;&#xa;+ monitorarGPU() : List&lt;GPU&gt;&#xa;+ monitorarRAM() : MemoriaRam&#xa;+ monitorarSistemaOperacional() : SistemaOp &#xa;+ monitorarUSB() : List&lt;ConexaoUSB&gt;&#xa;+ monitorarVolumeLogico() : List&lt;Volume&gt;&#xa;+ capturarInformacoesPlacaMae() : PlacaMae" style="text;align=left;verticalAlign=top;spacingLeft=4;spacingRight=4;overflow=hidden;rotatable=0;points=[[0,0.5],[1,0.5]];portConstraint=eastwest;strokeColor=none;" vertex="1" parent="yqbtppaPaY01xmd0uT7A-70">
          <mxGeometry y="98" width="260" height="152" as="geometry" />
        </mxCell>
        <mxCell id="yqbtppaPaY01xmd0uT7A-74" value="Looca" style="swimlane;fontStyle=0;align=center;verticalAlign=top;childLayout=stackLayout;horizontal=1;startSize=26;horizontalStack=0;resizeParent=1;resizeLast=0;collapsible=1;marginBottom=0;rounded=0;shadow=0;strokeWidth=1;" vertex="1" parent="WIyWlLk6GJQsqaUBKTNV-1">
          <mxGeometry x="170" y="-320" width="280" height="210" as="geometry">
            <mxRectangle x="130" y="380" width="160" height="26" as="alternateBounds" />
          </mxGeometry>
        </mxCell>
        <mxCell id="yqbtppaPaY01xmd0uT7A-75" value="- sistema : Sistema&#xa;- memoria : Memoria&#xa;- processador : Processador&#xa;- temperatura : Temperatura&#xa;- rede : Rede&#xa;- grupoDeDiscos : DiscoGrupo&#xa;- grupoDeServicos : ServicoGrupo&#xa;- grupoDeProcessos : ProcessoGrupo&#xa;- grupoDeJanelas : JanelaGrupo&#xa;- grupoDeDispositivosUsb : DispositivosUsbGrupo" style="text;align=left;verticalAlign=top;spacingLeft=4;spacingRight=4;overflow=hidden;rotatable=0;points=[[0,0.5],[1,0.5]];portConstraint=eastwest;strokeColor=none;" vertex="1" parent="yqbtppaPaY01xmd0uT7A-74">
          <mxGeometry y="26" width="280" height="154" as="geometry" />
        </mxCell>
        <mxCell id="yqbtppaPaY01xmd0uT7A-76" value="" style="line;html=1;strokeWidth=1;align=left;verticalAlign=middle;spacingTop=-1;spacingLeft=3;spacingRight=3;rotatable=0;labelPosition=right;points=[];portConstraint=eastwest;" vertex="1" parent="yqbtppaPaY01xmd0uT7A-74">
          <mxGeometry y="180" width="280" height="8" as="geometry" />
        </mxCell>
        <mxCell id="yqbtppaPaY01xmd0uT7A-77" value="&#xa;" style="text;align=left;verticalAlign=top;spacingLeft=4;spacingRight=4;overflow=hidden;rotatable=0;points=[[0,0.5],[1,0.5]];portConstraint=eastwest;strokeColor=none;" vertex="1" parent="yqbtppaPaY01xmd0uT7A-74">
          <mxGeometry y="188" width="280" height="22" as="geometry" />
        </mxCell>
        <mxCell id="yqbtppaPaY01xmd0uT7A-78" style="edgeStyle=orthogonalEdgeStyle;rounded=0;orthogonalLoop=1;jettySize=auto;html=1;entryX=0.459;entryY=1.003;entryDx=0;entryDy=0;fontSize=12;startSize=8;endSize=15;endArrow=diamond;endFill=0;entryPerimeter=0;" edge="1" parent="WIyWlLk6GJQsqaUBKTNV-1" source="yqbtppaPaY01xmd0uT7A-74" target="yqbtppaPaY01xmd0uT7A-73">
          <mxGeometry relative="1" as="geometry" />
        </mxCell>
        <mxCell id="yqbtppaPaY01xmd0uT7A-79" value="Conversor" style="swimlane;fontStyle=0;align=center;verticalAlign=top;childLayout=stackLayout;horizontal=1;startSize=26;horizontalStack=0;resizeParent=1;resizeLast=0;collapsible=1;marginBottom=0;rounded=0;shadow=0;strokeWidth=1;" vertex="1" parent="WIyWlLk6GJQsqaUBKTNV-1">
          <mxGeometry x="125" y="-1050" width="390" height="190" as="geometry">
            <mxRectangle x="130" y="380" width="160" height="26" as="alternateBounds" />
          </mxGeometry>
        </mxCell>
        <mxCell id="yqbtppaPaY01xmd0uT7A-80" value="&#xa;" style="text;align=left;verticalAlign=top;spacingLeft=4;spacingRight=4;overflow=hidden;rotatable=0;points=[[0,0.5],[1,0.5]];portConstraint=eastwest;strokeColor=none;" vertex="1" parent="yqbtppaPaY01xmd0uT7A-79">
          <mxGeometry y="26" width="390" height="14" as="geometry" />
        </mxCell>
        <mxCell id="yqbtppaPaY01xmd0uT7A-81" value="" style="line;html=1;strokeWidth=1;align=left;verticalAlign=middle;spacingTop=-1;spacingLeft=3;spacingRight=3;rotatable=0;labelPosition=right;points=[];portConstraint=eastwest;" vertex="1" parent="yqbtppaPaY01xmd0uT7A-79">
          <mxGeometry y="40" width="390" height="8" as="geometry" />
        </mxCell>
        <mxCell id="yqbtppaPaY01xmd0uT7A-87" value="+ converterParaKB(long bytes) : double&#xa;+ converterParaMB(long bytes) : double&#xa;+ converterParaGB(long bytes) : double&#xa;+ converterCasasDecimais(double valor, int casasDecimais) : double&#xa;+ formatarBytes(long bytes) : double&#xa;+ convertePorcentagem(double valorTotal, Double valorAtual) : Double&#xa;+ converterBytesParaDouble(byte[] bytes) : double&#xa;+ converterKBparaMB(double valorKB) : double&#xa;+ converterSegundosParaHoras(long segundos) : Double" style="text;align=left;verticalAlign=top;spacingLeft=4;spacingRight=4;overflow=hidden;rotatable=0;points=[[0,0.5],[1,0.5]];portConstraint=eastwest;strokeColor=none;" vertex="1" parent="yqbtppaPaY01xmd0uT7A-79">
          <mxGeometry y="48" width="390" height="142" as="geometry" />
        </mxCell>
        <mxCell id="yqbtppaPaY01xmd0uT7A-88" style="edgeStyle=orthogonalEdgeStyle;rounded=0;orthogonalLoop=1;jettySize=auto;html=1;entryX=0.5;entryY=0;entryDx=0;entryDy=0;fontSize=12;startSize=8;endSize=15;endArrow=diamond;endFill=1;" edge="1" parent="WIyWlLk6GJQsqaUBKTNV-1" source="yqbtppaPaY01xmd0uT7A-79" target="yqbtppaPaY01xmd0uT7A-70">
          <mxGeometry relative="1" as="geometry" />
        </mxCell>
        <mxCell id="yqbtppaPaY01xmd0uT7A-94" style="edgeStyle=elbowEdgeStyle;rounded=0;orthogonalLoop=1;jettySize=auto;html=1;fontSize=12;startSize=8;endSize=15;endArrow=diamond;endFill=0;entryX=0.75;entryY=0;entryDx=0;entryDy=0;exitX=0;exitY=0.5;exitDx=0;exitDy=0;" edge="1" parent="WIyWlLk6GJQsqaUBKTNV-1" source="yqbtppaPaY01xmd0uT7A-90" target="yqbtppaPaY01xmd0uT7A-70">
          <mxGeometry relative="1" as="geometry">
            <mxPoint x="380" y="-690" as="targetPoint" />
            <Array as="points">
              <mxPoint x="385" y="-750" />
            </Array>
          </mxGeometry>
        </mxCell>
        <mxCell id="yqbtppaPaY01xmd0uT7A-89" value="ShellIntegration" style="swimlane;fontStyle=0;align=center;verticalAlign=top;childLayout=stackLayout;horizontal=1;startSize=26;horizontalStack=0;resizeParent=1;resizeLast=0;collapsible=1;marginBottom=0;rounded=0;shadow=0;strokeWidth=1;" vertex="1" parent="WIyWlLk6GJQsqaUBKTNV-1">
          <mxGeometry x="555" y="-880" width="290" height="160" as="geometry">
            <mxRectangle x="130" y="380" width="160" height="26" as="alternateBounds" />
          </mxGeometry>
        </mxCell>
        <mxCell id="yqbtppaPaY01xmd0uT7A-90" value="- isWindows : Boolean&#xa;~ directory : String&#xa;~ conversor : Conversor" style="text;align=left;verticalAlign=top;spacingLeft=4;spacingRight=4;overflow=hidden;rotatable=0;points=[[0,0.5],[1,0.5]];portConstraint=eastwest;strokeColor=none;" vertex="1" parent="yqbtppaPaY01xmd0uT7A-89">
          <mxGeometry y="26" width="290" height="54" as="geometry" />
        </mxCell>
        <mxCell id="yqbtppaPaY01xmd0uT7A-91" value="" style="line;html=1;strokeWidth=1;align=left;verticalAlign=middle;spacingTop=-1;spacingLeft=3;spacingRight=3;rotatable=0;labelPosition=right;points=[];portConstraint=eastwest;" vertex="1" parent="yqbtppaPaY01xmd0uT7A-89">
          <mxGeometry y="80" width="290" height="8" as="geometry" />
        </mxCell>
        <mxCell id="yqbtppaPaY01xmd0uT7A-92" value="+ monitorarBateria() : Double&#xa;+ monitorarTemperatura() : Double&#xa;+ monitorarUsoDeRamDaJanela(String pid) : Double&#xa;+ parseOutput(String output) : Double" style="text;align=left;verticalAlign=top;spacingLeft=4;spacingRight=4;overflow=hidden;rotatable=0;points=[[0,0.5],[1,0.5]];portConstraint=eastwest;strokeColor=none;" vertex="1" parent="yqbtppaPaY01xmd0uT7A-89">
          <mxGeometry y="88" width="290" height="72" as="geometry" />
        </mxCell>
        <mxCell id="yqbtppaPaY01xmd0uT7A-93" style="rounded=0;orthogonalLoop=1;jettySize=auto;html=1;fontSize=12;startSize=8;endSize=15;endArrow=diamond;endFill=0;entryX=0.5;entryY=0;entryDx=0;entryDy=0;edgeStyle=orthogonalEdgeStyle;" edge="1" parent="WIyWlLk6GJQsqaUBKTNV-1" source="yqbtppaPaY01xmd0uT7A-89" target="yqbtppaPaY01xmd0uT7A-56">
          <mxGeometry relative="1" as="geometry">
            <mxPoint x="640" y="-710" as="sourcePoint" />
            <mxPoint x="640" y="-670" as="targetPoint" />
          </mxGeometry>
        </mxCell>
        <mxCell id="yqbtppaPaY01xmd0uT7A-95" style="edgeStyle=orthogonalEdgeStyle;rounded=0;orthogonalLoop=1;jettySize=auto;html=1;fontSize=12;startSize=8;endSize=15;entryX=0.5;entryY=0;entryDx=0;entryDy=0;endArrow=diamond;endFill=1;" edge="1" parent="WIyWlLk6GJQsqaUBKTNV-1" source="yqbtppaPaY01xmd0uT7A-87" target="yqbtppaPaY01xmd0uT7A-89">
          <mxGeometry relative="1" as="geometry" />
        </mxCell>
        <mxCell id="yqbtppaPaY01xmd0uT7A-98" value="Logger" style="swimlane;fontStyle=0;align=center;verticalAlign=top;childLayout=stackLayout;horizontal=1;startSize=26;horizontalStack=0;resizeParent=1;resizeLast=0;collapsible=1;marginBottom=0;rounded=0;shadow=0;strokeWidth=1;" vertex="1" parent="WIyWlLk6GJQsqaUBKTNV-1">
          <mxGeometry x="970" y="-410" width="410" height="180" as="geometry">
            <mxRectangle x="130" y="380" width="160" height="26" as="alternateBounds" />
          </mxGeometry>
        </mxCell>
        <mxCell id="yqbtppaPaY01xmd0uT7A-99" value="- LOG_FOLDER_NAME : String&#xa;- LOG_FILE_NAME : String" style="text;align=left;verticalAlign=top;spacingLeft=4;spacingRight=4;overflow=hidden;rotatable=0;points=[[0,0.5],[1,0.5]];portConstraint=eastwest;strokeColor=none;" vertex="1" parent="yqbtppaPaY01xmd0uT7A-98">
          <mxGeometry y="26" width="410" height="34" as="geometry" />
        </mxCell>
        <mxCell id="yqbtppaPaY01xmd0uT7A-100" value="" style="line;html=1;strokeWidth=1;align=left;verticalAlign=middle;spacingTop=-1;spacingLeft=3;spacingRight=3;rotatable=0;labelPosition=right;points=[];portConstraint=eastwest;" vertex="1" parent="yqbtppaPaY01xmd0uT7A-98">
          <mxGeometry y="60" width="410" height="8" as="geometry" />
        </mxCell>
        <mxCell id="yqbtppaPaY01xmd0uT7A-101" value="+ getLogPath() : String&#xa;+ logInfo(String message) : void&#xa;+ logWarning(String message) : void&#xa;+ logError(String message, String eMessage, Throwable throwable) : void&#xa;- log(String level, String message) : void&#xa;- getStackTraceAsString(Throwable throwable) : String&#xa;+ displayLogsInConsole() : String" style="text;align=left;verticalAlign=top;spacingLeft=4;spacingRight=4;overflow=hidden;rotatable=0;points=[[0,0.5],[1,0.5]];portConstraint=eastwest;strokeColor=none;" vertex="1" parent="yqbtppaPaY01xmd0uT7A-98">
          <mxGeometry y="68" width="410" height="112" as="geometry" />
        </mxCell>
        <mxCell id="yqbtppaPaY01xmd0uT7A-126" value="Userinfo" style="swimlane;fontStyle=0;align=center;verticalAlign=top;childLayout=stackLayout;horizontal=1;startSize=26;horizontalStack=0;resizeParent=1;resizeLast=0;collapsible=1;marginBottom=0;rounded=0;shadow=0;strokeWidth=1;" vertex="1" parent="WIyWlLk6GJQsqaUBKTNV-1">
          <mxGeometry x="567" y="-110" width="260" height="110" as="geometry">
            <mxRectangle x="130" y="380" width="160" height="26" as="alternateBounds" />
          </mxGeometry>
        </mxCell>
        <mxCell id="yqbtppaPaY01xmd0uT7A-127" value="- isWindows : Boolean" style="text;align=left;verticalAlign=top;spacingLeft=4;spacingRight=4;overflow=hidden;rotatable=0;points=[[0,0.5],[1,0.5]];portConstraint=eastwest;strokeColor=none;" vertex="1" parent="yqbtppaPaY01xmd0uT7A-126">
          <mxGeometry y="26" width="260" height="24" as="geometry" />
        </mxCell>
        <mxCell id="yqbtppaPaY01xmd0uT7A-128" value="" style="line;html=1;strokeWidth=1;align=left;verticalAlign=middle;spacingTop=-1;spacingLeft=3;spacingRight=3;rotatable=0;labelPosition=right;points=[];portConstraint=eastwest;" vertex="1" parent="yqbtppaPaY01xmd0uT7A-126">
          <mxGeometry y="50" width="260" height="8" as="geometry" />
        </mxCell>
        <mxCell id="yqbtppaPaY01xmd0uT7A-129" value="+ username() : String&#xa;+ hostname() : String&#xa;+ ipv4() : String" style="text;align=left;verticalAlign=top;spacingLeft=4;spacingRight=4;overflow=hidden;rotatable=0;points=[[0,0.5],[1,0.5]];portConstraint=eastwest;strokeColor=none;" vertex="1" parent="yqbtppaPaY01xmd0uT7A-126">
          <mxGeometry y="58" width="260" height="52" as="geometry" />
        </mxCell>
        <mxCell id="yqbtppaPaY01xmd0uT7A-134" style="edgeStyle=orthogonalEdgeStyle;rounded=0;orthogonalLoop=1;jettySize=auto;html=1;fontSize=12;startSize=8;endSize=15;endArrow=block;endFill=0;entryX=0;entryY=0.5;entryDx=0;entryDy=0;exitX=0.999;exitY=0.813;exitDx=0;exitDy=0;exitPerimeter=0;" edge="1" parent="WIyWlLk6GJQsqaUBKTNV-1" source="yqbtppaPaY01xmd0uT7A-131" target="yqbtppaPaY01xmd0uT7A-35">
          <mxGeometry relative="1" as="geometry">
            <mxPoint x="-840" y="20" as="targetPoint" />
          </mxGeometry>
        </mxCell>
        <mxCell id="yqbtppaPaY01xmd0uT7A-130" value="APP" style="swimlane;fontStyle=0;align=center;verticalAlign=top;childLayout=stackLayout;horizontal=1;startSize=26;horizontalStack=0;resizeParent=1;resizeLast=0;collapsible=1;marginBottom=0;rounded=0;shadow=0;strokeWidth=1;" vertex="1" parent="WIyWlLk6GJQsqaUBKTNV-1">
          <mxGeometry x="-453" y="-1040" width="240" height="140" as="geometry">
            <mxRectangle x="130" y="380" width="160" height="26" as="alternateBounds" />
          </mxGeometry>
        </mxCell>
        <mxCell id="yqbtppaPaY01xmd0uT7A-131" value="~ shellIntegration : ShellIntegration&#xa;- idApp : int&#xa;- comando : String&#xa;- nome : String&#xa;- localizacaoEtamanho : Rectangle&#xa;- dataHoraCaptura : LocalDateTime" style="text;align=left;verticalAlign=top;spacingLeft=4;spacingRight=4;overflow=hidden;rotatable=0;points=[[0,0.5],[1,0.5]];portConstraint=eastwest;strokeColor=none;" vertex="1" parent="yqbtppaPaY01xmd0uT7A-130">
          <mxGeometry y="26" width="240" height="94" as="geometry" />
        </mxCell>
        <mxCell id="yqbtppaPaY01xmd0uT7A-132" value="" style="line;html=1;strokeWidth=1;align=left;verticalAlign=middle;spacingTop=-1;spacingLeft=3;spacingRight=3;rotatable=0;labelPosition=right;points=[];portConstraint=eastwest;" vertex="1" parent="yqbtppaPaY01xmd0uT7A-130">
          <mxGeometry y="120" width="240" height="8" as="geometry" />
        </mxCell>
        <mxCell id="yqbtppaPaY01xmd0uT7A-143" style="edgeStyle=orthogonalEdgeStyle;rounded=0;orthogonalLoop=1;jettySize=auto;html=1;fontSize=12;startSize=8;endSize=15;endArrow=block;endFill=0;entryX=0;entryY=0.5;entryDx=0;entryDy=0;" edge="1" parent="WIyWlLk6GJQsqaUBKTNV-1" source="yqbtppaPaY01xmd0uT7A-136" target="yqbtppaPaY01xmd0uT7A-35">
          <mxGeometry relative="1" as="geometry">
            <mxPoint x="-815" y="155" as="sourcePoint" />
            <mxPoint x="-875" y="-5" as="targetPoint" />
          </mxGeometry>
        </mxCell>
        <mxCell id="yqbtppaPaY01xmd0uT7A-135" value="Bateria" style="swimlane;fontStyle=0;align=center;verticalAlign=top;childLayout=stackLayout;horizontal=1;startSize=26;horizontalStack=0;resizeParent=1;resizeLast=0;collapsible=1;marginBottom=0;rounded=0;shadow=0;strokeWidth=1;" vertex="1" parent="WIyWlLk6GJQsqaUBKTNV-1">
          <mxGeometry x="-453" y="-883" width="240" height="310" as="geometry">
            <mxRectangle x="130" y="380" width="160" height="26" as="alternateBounds" />
          </mxGeometry>
        </mxCell>
        <mxCell id="yqbtppaPaY01xmd0uT7A-136" value="- amperagem : Double&#xa;- nomeDispositivo : String&#xa;- numeroSerial : String&#xa;- quimica : String&#xa;- voltagem : Double&#xa;- unidadesCapacidade : String&#xa;- capacidadeAtual : Double&#xa;- ciclos : int&#xa;- capacidadeDesign : Double&#xa;- tempoRestanteInstantaneo : Double&#xa;- tempoRestanteEstimado : Double&#xa;- taxaUsoEnergia : Double&#xa;- temperatura : Double&#xa;- capacidadeMaxima : Double&#xa;- percentualCapacidadeRestante : Double&#xa;- dataFabricacao : String&#xa;- bateriaAtual : Double" style="text;align=left;verticalAlign=top;spacingLeft=4;spacingRight=4;overflow=hidden;rotatable=0;points=[[0,0.5],[1,0.5]];portConstraint=eastwest;strokeColor=none;" vertex="1" parent="yqbtppaPaY01xmd0uT7A-135">
          <mxGeometry y="26" width="240" height="254" as="geometry" />
        </mxCell>
        <mxCell id="yqbtppaPaY01xmd0uT7A-137" value="" style="line;html=1;strokeWidth=1;align=left;verticalAlign=middle;spacingTop=-1;spacingLeft=3;spacingRight=3;rotatable=0;labelPosition=right;points=[];portConstraint=eastwest;" vertex="1" parent="yqbtppaPaY01xmd0uT7A-135">
          <mxGeometry y="280" width="240" height="8" as="geometry" />
        </mxCell>
        <mxCell id="yqbtppaPaY01xmd0uT7A-152" value="+ arredondaValor(Double valor) : Double" style="text;align=left;verticalAlign=top;spacingLeft=4;spacingRight=4;overflow=hidden;rotatable=0;points=[[0,0.5],[1,0.5]];portConstraint=eastwest;strokeColor=none;" vertex="1" parent="yqbtppaPaY01xmd0uT7A-135">
          <mxGeometry y="288" width="240" height="22" as="geometry" />
        </mxCell>
        <mxCell id="yqbtppaPaY01xmd0uT7A-144" style="edgeStyle=orthogonalEdgeStyle;rounded=0;orthogonalLoop=1;jettySize=auto;html=1;fontSize=12;startSize=8;endSize=15;endArrow=block;endFill=0;" edge="1" parent="WIyWlLk6GJQsqaUBKTNV-1" source="yqbtppaPaY01xmd0uT7A-140" target="yqbtppaPaY01xmd0uT7A-35">
          <mxGeometry relative="1" as="geometry" />
        </mxCell>
        <mxCell id="yqbtppaPaY01xmd0uT7A-139" value="ConexaoUSB" style="swimlane;fontStyle=0;align=center;verticalAlign=top;childLayout=stackLayout;horizontal=1;startSize=26;horizontalStack=0;resizeParent=1;resizeLast=0;collapsible=1;marginBottom=0;rounded=0;shadow=0;strokeWidth=1;" vertex="1" parent="WIyWlLk6GJQsqaUBKTNV-1">
          <mxGeometry x="-453" y="-553" width="240" height="110" as="geometry">
            <mxRectangle x="130" y="380" width="160" height="26" as="alternateBounds" />
          </mxGeometry>
        </mxCell>
        <mxCell id="yqbtppaPaY01xmd0uT7A-140" value="- idDispositivoUSBExclusivo : String&#xa;- idFornecedor : String&#xa;- numeroSerie : String&#xa;- idProduto : String" style="text;align=left;verticalAlign=top;spacingLeft=4;spacingRight=4;overflow=hidden;rotatable=0;points=[[0,0.5],[1,0.5]];portConstraint=eastwest;strokeColor=none;" vertex="1" parent="yqbtppaPaY01xmd0uT7A-139">
          <mxGeometry y="26" width="240" height="64" as="geometry" />
        </mxCell>
        <mxCell id="yqbtppaPaY01xmd0uT7A-141" value="" style="line;html=1;strokeWidth=1;align=left;verticalAlign=middle;spacingTop=-1;spacingLeft=3;spacingRight=3;rotatable=0;labelPosition=right;points=[];portConstraint=eastwest;" vertex="1" parent="yqbtppaPaY01xmd0uT7A-139">
          <mxGeometry y="90" width="240" height="8" as="geometry" />
        </mxCell>
        <mxCell id="yqbtppaPaY01xmd0uT7A-145" value="Volume" style="swimlane;fontStyle=0;align=center;verticalAlign=top;childLayout=stackLayout;horizontal=1;startSize=26;horizontalStack=0;resizeParent=1;resizeLast=0;collapsible=1;marginBottom=0;rounded=0;shadow=0;strokeWidth=1;" vertex="1" parent="WIyWlLk6GJQsqaUBKTNV-1">
          <mxGeometry x="-453" y="500" width="240" height="150" as="geometry">
            <mxRectangle x="130" y="380" width="160" height="26" as="alternateBounds" />
          </mxGeometry>
        </mxCell>
        <mxCell id="yqbtppaPaY01xmd0uT7A-146" value="- volume : String&#xa;- disponivel : Double&#xa;- total : Double&#xa;- tipo : String&#xa;- uuid : String&#xa;- pontoDeMontagem : String" style="text;align=left;verticalAlign=top;spacingLeft=4;spacingRight=4;overflow=hidden;rotatable=0;points=[[0,0.5],[1,0.5]];portConstraint=eastwest;strokeColor=none;" vertex="1" parent="yqbtppaPaY01xmd0uT7A-145">
          <mxGeometry y="26" width="240" height="94" as="geometry" />
        </mxCell>
        <mxCell id="yqbtppaPaY01xmd0uT7A-147" value="" style="line;html=1;strokeWidth=1;align=left;verticalAlign=middle;spacingTop=-1;spacingLeft=3;spacingRight=3;rotatable=0;labelPosition=right;points=[];portConstraint=eastwest;" vertex="1" parent="yqbtppaPaY01xmd0uT7A-145">
          <mxGeometry y="120" width="240" height="8" as="geometry" />
        </mxCell>
        <mxCell id="yqbtppaPaY01xmd0uT7A-151" value="+ arredondaValor(Double valor) : Double" style="text;align=left;verticalAlign=top;spacingLeft=4;spacingRight=4;overflow=hidden;rotatable=0;points=[[0,0.5],[1,0.5]];portConstraint=eastwest;strokeColor=none;" vertex="1" parent="yqbtppaPaY01xmd0uT7A-145">
          <mxGeometry y="128" width="240" height="22" as="geometry" />
        </mxCell>
        <mxCell id="yqbtppaPaY01xmd0uT7A-148" value="CPU" style="swimlane;fontStyle=0;align=center;verticalAlign=top;childLayout=stackLayout;horizontal=1;startSize=26;horizontalStack=0;resizeParent=1;resizeLast=0;collapsible=1;marginBottom=0;rounded=0;shadow=0;strokeWidth=1;" vertex="1" parent="WIyWlLk6GJQsqaUBKTNV-1">
          <mxGeometry x="-453" y="-420" width="240" height="200" as="geometry">
            <mxRectangle x="130" y="380" width="160" height="26" as="alternateBounds" />
          </mxGeometry>
        </mxCell>
        <mxCell id="yqbtppaPaY01xmd0uT7A-149" value="~ systemMonitor : SystemMonitor&#xa;- numeroDeCpusLogicas : Integer&#xa;- numeroDeCpusFisicas : Integer&#xa;- microarquitetura : String&#xa;- identificador : String&#xa;- idCpuLooca : String&#xa;- frequencia :Double&#xa;- numeroPacotesFisicos : Integer&#xa;- uso : Double&#xa;- temperatura : Double" style="text;align=left;verticalAlign=top;spacingLeft=4;spacingRight=4;overflow=hidden;rotatable=0;points=[[0,0.5],[1,0.5]];portConstraint=eastwest;strokeColor=none;" vertex="1" parent="yqbtppaPaY01xmd0uT7A-148">
          <mxGeometry y="26" width="240" height="154" as="geometry" />
        </mxCell>
        <mxCell id="yqbtppaPaY01xmd0uT7A-150" value="" style="line;html=1;strokeWidth=1;align=left;verticalAlign=middle;spacingTop=-1;spacingLeft=3;spacingRight=3;rotatable=0;labelPosition=right;points=[];portConstraint=eastwest;" vertex="1" parent="yqbtppaPaY01xmd0uT7A-148">
          <mxGeometry y="180" width="240" height="8" as="geometry" />
        </mxCell>
        <mxCell id="yqbtppaPaY01xmd0uT7A-153" value="GPU" style="swimlane;fontStyle=0;align=center;verticalAlign=top;childLayout=stackLayout;horizontal=1;startSize=26;horizontalStack=0;resizeParent=1;resizeLast=0;collapsible=1;marginBottom=0;rounded=0;shadow=0;strokeWidth=1;" vertex="1" parent="WIyWlLk6GJQsqaUBKTNV-1">
          <mxGeometry x="-453" y="-200" width="240" height="110" as="geometry">
            <mxRectangle x="130" y="380" width="160" height="26" as="alternateBounds" />
          </mxGeometry>
        </mxCell>
        <mxCell id="yqbtppaPaY01xmd0uT7A-154" value="- versao : String&#xa;- idDevice : String&#xa;- vRam : Double&#xa;- temperatura : Double&#xa;" style="text;align=left;verticalAlign=top;spacingLeft=4;spacingRight=4;overflow=hidden;rotatable=0;points=[[0,0.5],[1,0.5]];portConstraint=eastwest;strokeColor=none;" vertex="1" parent="yqbtppaPaY01xmd0uT7A-153">
          <mxGeometry y="26" width="240" height="64" as="geometry" />
        </mxCell>
        <mxCell id="yqbtppaPaY01xmd0uT7A-155" value="" style="line;html=1;strokeWidth=1;align=left;verticalAlign=middle;spacingTop=-1;spacingLeft=3;spacingRight=3;rotatable=0;labelPosition=right;points=[];portConstraint=eastwest;" vertex="1" parent="yqbtppaPaY01xmd0uT7A-153">
          <mxGeometry y="90" width="240" height="8" as="geometry" />
        </mxCell>
        <mxCell id="yqbtppaPaY01xmd0uT7A-156" style="edgeStyle=orthogonalEdgeStyle;rounded=0;orthogonalLoop=1;jettySize=auto;html=1;fontSize=12;startSize=8;endSize=15;endArrow=block;endFill=0;exitX=0.999;exitY=0.666;exitDx=0;exitDy=0;exitPerimeter=0;" edge="1" parent="WIyWlLk6GJQsqaUBKTNV-1" source="yqbtppaPaY01xmd0uT7A-149" target="yqbtppaPaY01xmd0uT7A-35">
          <mxGeometry relative="1" as="geometry">
            <mxPoint x="-570" y="-50" as="targetPoint" />
          </mxGeometry>
        </mxCell>
        <mxCell id="yqbtppaPaY01xmd0uT7A-157" style="edgeStyle=orthogonalEdgeStyle;rounded=0;orthogonalLoop=1;jettySize=auto;html=1;fontSize=12;startSize=8;endSize=15;endArrow=block;endFill=0;" edge="1" parent="WIyWlLk6GJQsqaUBKTNV-1" source="yqbtppaPaY01xmd0uT7A-154" target="yqbtppaPaY01xmd0uT7A-35">
          <mxGeometry relative="1" as="geometry" />
        </mxCell>
        <mxCell id="yqbtppaPaY01xmd0uT7A-162" value="HDD" style="swimlane;fontStyle=0;align=center;verticalAlign=top;childLayout=stackLayout;horizontal=1;startSize=26;horizontalStack=0;resizeParent=1;resizeLast=0;collapsible=1;marginBottom=0;rounded=0;shadow=0;strokeWidth=1;" vertex="1" parent="WIyWlLk6GJQsqaUBKTNV-1">
          <mxGeometry x="-453" y="-70" width="240" height="180" as="geometry">
            <mxRectangle x="130" y="380" width="160" height="26" as="alternateBounds" />
          </mxGeometry>
        </mxCell>
        <mxCell id="yqbtppaPaY01xmd0uT7A-163" value="- nome : String&#xa;- serial : String&#xa;- escritas : Double&#xa;- leituras : Double&#xa;- bytesDeEscrita : Double&#xa;- bytesDeLeitura : Double&#xa;- tamanho : Double&#xa;- tempoDeTransferencia : Double" style="text;align=left;verticalAlign=top;spacingLeft=4;spacingRight=4;overflow=hidden;rotatable=0;points=[[0,0.5],[1,0.5]];portConstraint=eastwest;strokeColor=none;" vertex="1" parent="yqbtppaPaY01xmd0uT7A-162">
          <mxGeometry y="26" width="240" height="124" as="geometry" />
        </mxCell>
        <mxCell id="yqbtppaPaY01xmd0uT7A-164" value="" style="line;html=1;strokeWidth=1;align=left;verticalAlign=middle;spacingTop=-1;spacingLeft=3;spacingRight=3;rotatable=0;labelPosition=right;points=[];portConstraint=eastwest;" vertex="1" parent="yqbtppaPaY01xmd0uT7A-162">
          <mxGeometry y="150" width="240" height="8" as="geometry" />
        </mxCell>
        <mxCell id="yqbtppaPaY01xmd0uT7A-165" value="+ arredondaValor(Double valor) : Double" style="text;align=left;verticalAlign=top;spacingLeft=4;spacingRight=4;overflow=hidden;rotatable=0;points=[[0,0.5],[1,0.5]];portConstraint=eastwest;strokeColor=none;" vertex="1" parent="yqbtppaPaY01xmd0uT7A-162">
          <mxGeometry y="158" width="240" height="22" as="geometry" />
        </mxCell>
        <mxCell id="yqbtppaPaY01xmd0uT7A-166" value="MemoriaRam" style="swimlane;fontStyle=0;align=center;verticalAlign=top;childLayout=stackLayout;horizontal=1;startSize=26;horizontalStack=0;resizeParent=1;resizeLast=0;collapsible=1;marginBottom=0;rounded=0;shadow=0;strokeWidth=1;" vertex="1" parent="WIyWlLk6GJQsqaUBKTNV-1">
          <mxGeometry x="-453" y="130" width="240" height="110" as="geometry">
            <mxRectangle x="130" y="380" width="160" height="26" as="alternateBounds" />
          </mxGeometry>
        </mxCell>
        <mxCell id="yqbtppaPaY01xmd0uT7A-167" value="- memoriaDisponivel : Double&#xa;- memoriaEmUso : Double&#xa;- memoriaTotal : Double&#xa;" style="text;align=left;verticalAlign=top;spacingLeft=4;spacingRight=4;overflow=hidden;rotatable=0;points=[[0,0.5],[1,0.5]];portConstraint=eastwest;strokeColor=none;" vertex="1" parent="yqbtppaPaY01xmd0uT7A-166">
          <mxGeometry y="26" width="240" height="54" as="geometry" />
        </mxCell>
        <mxCell id="yqbtppaPaY01xmd0uT7A-168" value="" style="line;html=1;strokeWidth=1;align=left;verticalAlign=middle;spacingTop=-1;spacingLeft=3;spacingRight=3;rotatable=0;labelPosition=right;points=[];portConstraint=eastwest;" vertex="1" parent="yqbtppaPaY01xmd0uT7A-166">
          <mxGeometry y="80" width="240" height="8" as="geometry" />
        </mxCell>
        <mxCell id="yqbtppaPaY01xmd0uT7A-169" value="+ arredondaValor(Double valor) : Double" style="text;align=left;verticalAlign=top;spacingLeft=4;spacingRight=4;overflow=hidden;rotatable=0;points=[[0,0.5],[1,0.5]];portConstraint=eastwest;strokeColor=none;" vertex="1" parent="yqbtppaPaY01xmd0uT7A-166">
          <mxGeometry y="88" width="240" height="22" as="geometry" />
        </mxCell>
        <mxCell id="yqbtppaPaY01xmd0uT7A-170" value="PlacaMae" style="swimlane;fontStyle=0;align=center;verticalAlign=top;childLayout=stackLayout;horizontal=1;startSize=26;horizontalStack=0;resizeParent=1;resizeLast=0;collapsible=1;marginBottom=0;rounded=0;shadow=0;strokeWidth=1;" vertex="1" parent="WIyWlLk6GJQsqaUBKTNV-1">
          <mxGeometry x="-453" y="260" width="240" height="70" as="geometry">
            <mxRectangle x="130" y="380" width="160" height="26" as="alternateBounds" />
          </mxGeometry>
        </mxCell>
        <mxCell id="yqbtppaPaY01xmd0uT7A-171" value="- dataCaptura : LocalDateTime" style="text;align=left;verticalAlign=top;spacingLeft=4;spacingRight=4;overflow=hidden;rotatable=0;points=[[0,0.5],[1,0.5]];portConstraint=eastwest;strokeColor=none;" vertex="1" parent="yqbtppaPaY01xmd0uT7A-170">
          <mxGeometry y="26" width="240" height="24" as="geometry" />
        </mxCell>
        <mxCell id="yqbtppaPaY01xmd0uT7A-172" value="" style="line;html=1;strokeWidth=1;align=left;verticalAlign=middle;spacingTop=-1;spacingLeft=3;spacingRight=3;rotatable=0;labelPosition=right;points=[];portConstraint=eastwest;" vertex="1" parent="yqbtppaPaY01xmd0uT7A-170">
          <mxGeometry y="50" width="240" height="8" as="geometry" />
        </mxCell>
        <mxCell id="yqbtppaPaY01xmd0uT7A-174" value="SistemaOp" style="swimlane;fontStyle=0;align=center;verticalAlign=top;childLayout=stackLayout;horizontal=1;startSize=26;horizontalStack=0;resizeParent=1;resizeLast=0;collapsible=1;marginBottom=0;rounded=0;shadow=0;strokeWidth=1;" vertex="1" parent="WIyWlLk6GJQsqaUBKTNV-1">
          <mxGeometry x="-453" y="350" width="240" height="130" as="geometry">
            <mxRectangle x="130" y="380" width="160" height="26" as="alternateBounds" />
          </mxGeometry>
        </mxCell>
        <mxCell id="yqbtppaPaY01xmd0uT7A-175" value="- arquitetura : String&#xa;- inicializado : String&#xa;- permissao : String&#xa;- tempoDeAtividade : String&#xa;- dataCaptura : LocalDateTime" style="text;align=left;verticalAlign=top;spacingLeft=4;spacingRight=4;overflow=hidden;rotatable=0;points=[[0,0.5],[1,0.5]];portConstraint=eastwest;strokeColor=none;" vertex="1" parent="yqbtppaPaY01xmd0uT7A-174">
          <mxGeometry y="26" width="240" height="84" as="geometry" />
        </mxCell>
        <mxCell id="yqbtppaPaY01xmd0uT7A-176" value="" style="line;html=1;strokeWidth=1;align=left;verticalAlign=middle;spacingTop=-1;spacingLeft=3;spacingRight=3;rotatable=0;labelPosition=right;points=[];portConstraint=eastwest;" vertex="1" parent="yqbtppaPaY01xmd0uT7A-174">
          <mxGeometry y="110" width="240" height="8" as="geometry" />
        </mxCell>
        <mxCell id="yqbtppaPaY01xmd0uT7A-178" style="edgeStyle=orthogonalEdgeStyle;rounded=0;orthogonalLoop=1;jettySize=auto;html=1;entryX=0;entryY=0.5;entryDx=0;entryDy=0;fontSize=12;startSize=8;endSize=15;endArrow=block;endFill=0;" edge="1" parent="WIyWlLk6GJQsqaUBKTNV-1" source="yqbtppaPaY01xmd0uT7A-163" target="yqbtppaPaY01xmd0uT7A-35">
          <mxGeometry relative="1" as="geometry" />
        </mxCell>
        <mxCell id="yqbtppaPaY01xmd0uT7A-179" style="edgeStyle=orthogonalEdgeStyle;rounded=0;orthogonalLoop=1;jettySize=auto;html=1;fontSize=12;startSize=8;endSize=15;endArrow=block;endFill=0;" edge="1" parent="WIyWlLk6GJQsqaUBKTNV-1" source="yqbtppaPaY01xmd0uT7A-167" target="yqbtppaPaY01xmd0uT7A-35">
          <mxGeometry relative="1" as="geometry">
            <mxPoint x="-650" y="310" as="targetPoint" />
          </mxGeometry>
        </mxCell>
        <mxCell id="yqbtppaPaY01xmd0uT7A-180" style="edgeStyle=orthogonalEdgeStyle;rounded=0;orthogonalLoop=1;jettySize=auto;html=1;fontSize=12;startSize=8;endSize=15;endArrow=block;endFill=0;" edge="1" parent="WIyWlLk6GJQsqaUBKTNV-1" source="yqbtppaPaY01xmd0uT7A-171" target="yqbtppaPaY01xmd0uT7A-35">
          <mxGeometry relative="1" as="geometry" />
        </mxCell>
        <mxCell id="yqbtppaPaY01xmd0uT7A-181" style="edgeStyle=orthogonalEdgeStyle;rounded=0;orthogonalLoop=1;jettySize=auto;html=1;fontSize=12;startSize=8;endSize=15;endArrow=block;endFill=0;" edge="1" parent="WIyWlLk6GJQsqaUBKTNV-1" source="yqbtppaPaY01xmd0uT7A-175" target="yqbtppaPaY01xmd0uT7A-35">
          <mxGeometry relative="1" as="geometry" />
        </mxCell>
        <mxCell id="yqbtppaPaY01xmd0uT7A-182" style="edgeStyle=orthogonalEdgeStyle;rounded=0;orthogonalLoop=1;jettySize=auto;html=1;entryX=0;entryY=0.5;entryDx=0;entryDy=0;fontSize=12;startSize=8;endSize=15;endArrow=block;endFill=0;" edge="1" parent="WIyWlLk6GJQsqaUBKTNV-1" source="yqbtppaPaY01xmd0uT7A-146" target="yqbtppaPaY01xmd0uT7A-35">
          <mxGeometry relative="1" as="geometry" />
        </mxCell>
        <mxCell id="yqbtppaPaY01xmd0uT7A-187" style="edgeStyle=orthogonalEdgeStyle;rounded=0;orthogonalLoop=1;jettySize=auto;html=1;fontSize=12;startSize=8;endSize=15;endArrow=diamond;endFill=0;exitX=0;exitY=0.5;exitDx=0;exitDy=0;entryX=1;entryY=0.5;entryDx=0;entryDy=0;" edge="1" parent="WIyWlLk6GJQsqaUBKTNV-1" source="yqbtppaPaY01xmd0uT7A-90" target="yqbtppaPaY01xmd0uT7A-131">
          <mxGeometry relative="1" as="geometry">
            <Array as="points">
              <mxPoint x="40" y="-827" />
              <mxPoint x="40" y="-967" />
            </Array>
          </mxGeometry>
        </mxCell>
        <mxCell id="yqbtppaPaY01xmd0uT7A-188" style="edgeStyle=orthogonalEdgeStyle;rounded=0;orthogonalLoop=1;jettySize=auto;html=1;fontSize=12;startSize=8;endSize=15;exitX=0;exitY=0.5;exitDx=0;exitDy=0;endArrow=diamond;endFill=0;" edge="1" parent="WIyWlLk6GJQsqaUBKTNV-1" source="yqbtppaPaY01xmd0uT7A-73" target="yqbtppaPaY01xmd0uT7A-149">
          <mxGeometry relative="1" as="geometry" />
        </mxCell>
        <mxCell id="yqbtppaPaY01xmd0uT7A-193" value="MySQLConnection" style="swimlane;fontStyle=0;align=center;verticalAlign=top;childLayout=stackLayout;horizontal=1;startSize=26;horizontalStack=0;resizeParent=1;resizeLast=0;collapsible=1;marginBottom=0;rounded=0;shadow=0;strokeWidth=1;" vertex="1" parent="WIyWlLk6GJQsqaUBKTNV-1">
          <mxGeometry x="1045" y="-170" width="260" height="130" as="geometry">
            <mxRectangle x="130" y="380" width="160" height="26" as="alternateBounds" />
          </mxGeometry>
        </mxCell>
        <mxCell id="yqbtppaPaY01xmd0uT7A-194" value="- logger : Logger&#xa;- hml : boolean&#xa;- CONNECTION_STRING : String&#xa;- USERNAME : String&#xa;- PASSWORD : String" style="text;align=left;verticalAlign=top;spacingLeft=4;spacingRight=4;overflow=hidden;rotatable=0;points=[[0,0.5],[1,0.5]];portConstraint=eastwest;strokeColor=none;" vertex="1" parent="yqbtppaPaY01xmd0uT7A-193">
          <mxGeometry y="26" width="260" height="74" as="geometry" />
        </mxCell>
        <mxCell id="yqbtppaPaY01xmd0uT7A-195" value="" style="line;html=1;strokeWidth=1;align=left;verticalAlign=middle;spacingTop=-1;spacingLeft=3;spacingRight=3;rotatable=0;labelPosition=right;points=[];portConstraint=eastwest;" vertex="1" parent="yqbtppaPaY01xmd0uT7A-193">
          <mxGeometry y="100" width="260" height="8" as="geometry" />
        </mxCell>
        <mxCell id="yqbtppaPaY01xmd0uT7A-196" value="+ ConBD() : Connection" style="text;align=left;verticalAlign=top;spacingLeft=4;spacingRight=4;overflow=hidden;rotatable=0;points=[[0,0.5],[1,0.5]];portConstraint=eastwest;strokeColor=none;" vertex="1" parent="yqbtppaPaY01xmd0uT7A-193">
          <mxGeometry y="108" width="260" height="22" as="geometry" />
        </mxCell>
        <mxCell id="yqbtppaPaY01xmd0uT7A-197" value="Enum&#xa;MensagemSuporte" style="swimlane;fontStyle=0;align=center;verticalAlign=top;childLayout=stackLayout;horizontal=1;startSize=40;horizontalStack=0;resizeParent=1;resizeLast=0;collapsible=1;marginBottom=0;rounded=0;shadow=0;strokeWidth=1;" vertex="1" parent="WIyWlLk6GJQsqaUBKTNV-1">
          <mxGeometry x="985" y="-12" width="380" height="160" as="geometry">
            <mxRectangle x="130" y="380" width="160" height="26" as="alternateBounds" />
          </mxGeometry>
        </mxCell>
        <mxCell id="yqbtppaPaY01xmd0uT7A-198" value="- componente : String&#xa;- numero : int&#xa;- mensagem : String&#xa;- sugestao : String" style="text;align=left;verticalAlign=top;spacingLeft=4;spacingRight=4;overflow=hidden;rotatable=0;points=[[0,0.5],[1,0.5]];portConstraint=eastwest;strokeColor=none;" vertex="1" parent="yqbtppaPaY01xmd0uT7A-197">
          <mxGeometry y="40" width="380" height="70" as="geometry" />
        </mxCell>
        <mxCell id="yqbtppaPaY01xmd0uT7A-199" value="" style="line;html=1;strokeWidth=1;align=left;verticalAlign=middle;spacingTop=-1;spacingLeft=3;spacingRight=3;rotatable=0;labelPosition=right;points=[];portConstraint=eastwest;" vertex="1" parent="yqbtppaPaY01xmd0uT7A-197">
          <mxGeometry y="110" width="380" height="8" as="geometry" />
        </mxCell>
        <mxCell id="yqbtppaPaY01xmd0uT7A-200" value="+ getByNumero(int numero) : MensagemSuporte&#xa;+ getByNumeroComponente(int numero, String componente) : String" style="text;align=left;verticalAlign=top;spacingLeft=4;spacingRight=4;overflow=hidden;rotatable=0;points=[[0,0.5],[1,0.5]];portConstraint=eastwest;strokeColor=none;" vertex="1" parent="yqbtppaPaY01xmd0uT7A-197">
          <mxGeometry y="118" width="380" height="42" as="geometry" />
        </mxCell>
        <mxCell id="yqbtppaPaY01xmd0uT7A-207" value="CreatePDFInfos" style="swimlane;fontStyle=0;align=center;verticalAlign=top;childLayout=stackLayout;horizontal=1;startSize=26;horizontalStack=0;resizeParent=1;resizeLast=0;collapsible=1;marginBottom=0;rounded=0;shadow=0;strokeWidth=1;" vertex="1" parent="WIyWlLk6GJQsqaUBKTNV-1">
          <mxGeometry x="1030" y="180" width="290" height="80" as="geometry">
            <mxRectangle x="130" y="380" width="160" height="26" as="alternateBounds" />
          </mxGeometry>
        </mxCell>
        <mxCell id="yqbtppaPaY01xmd0uT7A-208" value="&#xa;" style="text;align=left;verticalAlign=top;spacingLeft=4;spacingRight=4;overflow=hidden;rotatable=0;points=[[0,0.5],[1,0.5]];portConstraint=eastwest;strokeColor=none;" vertex="1" parent="yqbtppaPaY01xmd0uT7A-207">
          <mxGeometry y="26" width="290" height="14" as="geometry" />
        </mxCell>
        <mxCell id="yqbtppaPaY01xmd0uT7A-209" value="" style="line;html=1;strokeWidth=1;align=left;verticalAlign=middle;spacingTop=-1;spacingLeft=3;spacingRight=3;rotatable=0;labelPosition=right;points=[];portConstraint=eastwest;" vertex="1" parent="yqbtppaPaY01xmd0uT7A-207">
          <mxGeometry y="40" width="290" height="8" as="geometry" />
        </mxCell>
        <mxCell id="yqbtppaPaY01xmd0uT7A-210" value="+ gerarLayoutPDF(List&lt;List&lt;String&gt;&gt; data) : String" style="text;align=left;verticalAlign=top;spacingLeft=4;spacingRight=4;overflow=hidden;rotatable=0;points=[[0,0.5],[1,0.5]];portConstraint=eastwest;strokeColor=none;" vertex="1" parent="yqbtppaPaY01xmd0uT7A-207">
          <mxGeometry y="48" width="290" height="22" as="geometry" />
        </mxCell>
        <mxCell id="yqbtppaPaY01xmd0uT7A-211" value="PDFGenerator" style="swimlane;fontStyle=0;align=center;verticalAlign=top;childLayout=stackLayout;horizontal=1;startSize=26;horizontalStack=0;resizeParent=1;resizeLast=0;collapsible=1;marginBottom=0;rounded=0;shadow=0;strokeWidth=1;" vertex="1" parent="WIyWlLk6GJQsqaUBKTNV-1">
          <mxGeometry x="1030" y="300" width="290" height="80" as="geometry">
            <mxRectangle x="130" y="380" width="160" height="26" as="alternateBounds" />
          </mxGeometry>
        </mxCell>
        <mxCell id="yqbtppaPaY01xmd0uT7A-212" value="&#xa;" style="text;align=left;verticalAlign=top;spacingLeft=4;spacingRight=4;overflow=hidden;rotatable=0;points=[[0,0.5],[1,0.5]];portConstraint=eastwest;strokeColor=none;" vertex="1" parent="yqbtppaPaY01xmd0uT7A-211">
          <mxGeometry y="26" width="290" height="14" as="geometry" />
        </mxCell>
        <mxCell id="yqbtppaPaY01xmd0uT7A-213" value="" style="line;html=1;strokeWidth=1;align=left;verticalAlign=middle;spacingTop=-1;spacingLeft=3;spacingRight=3;rotatable=0;labelPosition=right;points=[];portConstraint=eastwest;" vertex="1" parent="yqbtppaPaY01xmd0uT7A-211">
          <mxGeometry y="40" width="290" height="8" as="geometry" />
        </mxCell>
        <mxCell id="yqbtppaPaY01xmd0uT7A-214" value="+ gerarPDF(String content) : void" style="text;align=left;verticalAlign=top;spacingLeft=4;spacingRight=4;overflow=hidden;rotatable=0;points=[[0,0.5],[1,0.5]];portConstraint=eastwest;strokeColor=none;" vertex="1" parent="yqbtppaPaY01xmd0uT7A-211">
          <mxGeometry y="48" width="290" height="22" as="geometry" />
        </mxCell>
        <mxCell id="yqbtppaPaY01xmd0uT7A-215" value="TablePrinter" style="swimlane;fontStyle=0;align=center;verticalAlign=top;childLayout=stackLayout;horizontal=1;startSize=26;horizontalStack=0;resizeParent=1;resizeLast=0;collapsible=1;marginBottom=0;rounded=0;shadow=0;strokeWidth=1;" vertex="1" parent="WIyWlLk6GJQsqaUBKTNV-1">
          <mxGeometry x="1020" y="410" width="310" height="120" as="geometry">
            <mxRectangle x="130" y="380" width="160" height="26" as="alternateBounds" />
          </mxGeometry>
        </mxCell>
        <mxCell id="yqbtppaPaY01xmd0uT7A-216" value="&#xa;" style="text;align=left;verticalAlign=top;spacingLeft=4;spacingRight=4;overflow=hidden;rotatable=0;points=[[0,0.5],[1,0.5]];portConstraint=eastwest;strokeColor=none;" vertex="1" parent="yqbtppaPaY01xmd0uT7A-215">
          <mxGeometry y="26" width="310" height="14" as="geometry" />
        </mxCell>
        <mxCell id="yqbtppaPaY01xmd0uT7A-217" value="" style="line;html=1;strokeWidth=1;align=left;verticalAlign=middle;spacingTop=-1;spacingLeft=3;spacingRight=3;rotatable=0;labelPosition=right;points=[];portConstraint=eastwest;" vertex="1" parent="yqbtppaPaY01xmd0uT7A-215">
          <mxGeometry y="40" width="310" height="8" as="geometry" />
        </mxCell>
        <mxCell id="yqbtppaPaY01xmd0uT7A-218" value="+ printTable(List&lt;List&lt;String&gt;&gt; data) : String&#xa;- printSeparator(int[] columnWidths) : String&#xa;- printRow(List&lt;String&gt; row, int[] columnWidths) : String&#xa;- calculateColumnWidths(List&lt;List&lt;String&gt;&gt; data) : int[]" style="text;align=left;verticalAlign=top;spacingLeft=4;spacingRight=4;overflow=hidden;rotatable=0;points=[[0,0.5],[1,0.5]];portConstraint=eastwest;strokeColor=none;" vertex="1" parent="yqbtppaPaY01xmd0uT7A-215">
          <mxGeometry y="48" width="310" height="72" as="geometry" />
        </mxCell>
      </root>
    </mxGraphModel>
  </diagram>
</mxfile>
